<svg xmlns="http://www.w3.org/2000/svg" width="850" height="720">
  <style>
    .bg { fill: #1a1b26; }
    .titlebar { fill: #24283b; }
    .title { fill: #a9b1d6; font-family: 'SF Pro Display', 'Segoe UI', system-ui, sans-serif; font-size: 13px; }
    .t { fill: #a9b1d6; font-family: 'JetBrains Mono', 'Cascadia Code', 'Fira Code', 'SF Mono', monospace; font-size: 13px; }
    .dim { fill: #565f89; }
    .bold { fill: #c0caf5; font-weight: bold; }
    .green { fill: #9ece6a; }
    .yellow { fill: #e0af68; }
    .red { fill: #f7768e; }
    .blue { fill: #7aa2f7; }
    .cyan { fill: #7dcfff; }
    .boldcyan { fill: #7dcfff; font-weight: bold; }
    .boldgreen { fill: #9ece6a; font-weight: bold; }
    .boldyellow { fill: #e0af68; font-weight: bold; }
    .boldred { fill: #f7768e; font-weight: bold; }
    .boldwhite { fill: #c0caf5; font-weight: bold; }
    .magenta { fill: #bb9af7; }
    .dot-red { fill: #f7768e; }
    .dot-yellow { fill: #e0af68; }
    .dot-green { fill: #9ece6a; }
  </style>

  <!-- Window -->
  <rect class="bg" width="850" height="720" rx="10" ry="10"/>

  <!-- Title bar -->
  <rect class="titlebar" width="850" height="38" rx="10" ry="10"/>
  <rect class="titlebar" x="0" y="28" width="850" height="10"/>

  <!-- Window buttons -->
  <circle class="dot-red" cx="20" cy="19" r="6"/>
  <circle class="dot-yellow" cx="40" cy="19" r="6"/>
  <circle class="dot-green" cx="60" cy="19" r="6"/>

  <!-- Title bar text -->
  <text class="title" x="425" y="24" text-anchor="middle">adaf status &#8212; nexus-api</text>

  <!-- Terminal content -->
  <g transform="translate(20, 56)">
    <!-- Prompt line -->
    <text class="green" x="0" y="0">$</text>
    <text class="t" x="16" y="0">adaf status</text>

    <!-- Project header -->
    <text class="boldcyan" x="0" y="30">  =============================================</text>
    <text class="boldcyan" x="0" y="48">   Project Status</text>
    <text class="boldcyan" x="0" y="66">  =============================================</text>

    <!-- Project info -->
    <text class="dim" x="0" y="96">  Name:</text>
    <text class="bold" x="120" y="96">nexus-api</text>
    <text class="dim" x="0" y="114">  Repo:</text>
    <text class="t" x="120" y="114">/home/dev/projects/nexus-api</text>
    <text class="dim" x="0" y="132">  Created:</text>
    <text class="t" x="120" y="132">2026-02-03 09:14:22</text>

    <!-- Plan section -->
    <text class="boldcyan" x="0" y="164">  ── Plan ──────────────────────────────────────</text>
    <text class="dim" x="0" y="184">  Title:</text>
    <text class="bold" x="120" y="184">Nexus API v2 Migration</text>

    <!-- Progress bar -->
    <text class="dim" x="0" y="204">  Progress:</text>
    <text class="t" x="120" y="204">[</text>
    <text class="green" x="130" y="204">########</text>
    <text class="green" x="194" y="204">########</text>
    <text class="dim" x="258" y="204">----------</text>
    <text class="t" x="338" y="204">]</text>
    <text class="t" x="352" y="204">5/8 phases</text>

    <!-- Phase counts -->
    <text class="green" x="20" y="224">5 complete</text>
    <text class="yellow" x="140" y="224">2 in-progress</text>
    <text class="blue" x="290" y="224">1 not-started</text>

    <!-- Issues section -->
    <text class="boldcyan" x="0" y="256">  ── Issues ───────────────────────────────────</text>
    <text class="blue" x="20" y="276">3 open</text>
    <text class="yellow" x="100" y="276">2 in-progress</text>
    <text class="green" x="240" y="276">14 resolved</text>
    <text class="dim" x="360" y="276">(19 total)</text>
    <text class="red" x="20" y="296">!</text>
    <text class="t" x="32" y="296">#17</text>
    <text class="boldred" x="60" y="296">[critical]</text>
    <text class="t" x="150" y="296">WebSocket auth bypass on /ws/subscribe</text>
    <text class="red" x="20" y="314">!</text>
    <text class="t" x="32" y="314">#19</text>
    <text class="boldyellow" x="60" y="314">[high]</text>
    <text class="t" x="120" y="314">Rate limiter not applied to batch endpoints</text>

    <!-- Sessions section -->
    <text class="boldcyan" x="0" y="346">  ── Sessions ─────────────────────────────────</text>
    <text class="dim" x="0" y="366">  Total:</text>
    <text class="t" x="120" y="366">42 session(s)</text>

    <text class="bold" x="0" y="396">  Latest Session (#42):</text>
    <text class="dim" x="0" y="416">  Date:</text>
    <text class="t" x="120" y="416">2026-02-11 08:31:47</text>
    <text class="dim" x="0" y="434">  Agent:</text>
    <text class="t" x="120" y="434">claude</text>
    <text class="dim" x="0" y="452">  Model:</text>
    <text class="t" x="120" y="452">claude-opus-4-6</text>
    <text class="dim" x="0" y="470">  Objective:</text>
    <text class="t" x="120" y="470">Implement JWT rotation + refresh token flow</text>
    <text class="dim" x="0" y="488">  Build State:</text>
    <text class="green" x="120" y="488">tests passing</text>

    <!-- Decisions section -->
    <text class="boldcyan" x="0" y="520">  ── Decisions ─────────────────────────────────</text>
    <text class="t" x="0" y="540">  7 architectural decision(s) recorded.</text>
    <text class="bold" x="0" y="560">  #5</text>
    <text class="t" x="40" y="560">Use Redis for session store</text>
    <text class="dim" x="420" y="560">(2026-02-07)</text>
    <text class="bold" x="0" y="578">  #6</text>
    <text class="t" x="40" y="578">Adopt OpenAPI 3.1 for schema validation</text>
    <text class="dim" x="420" y="578">(2026-02-09)</text>
    <text class="bold" x="0" y="596">  #7</text>
    <text class="t" x="40" y="596">JWT rotation with sliding window refresh</text>
    <text class="dim" x="420" y="596">(2026-02-11)</text>

    <!-- Documents section -->
    <text class="boldcyan" x="0" y="628">  ── Documents ─────────────────────────────────</text>
    <text class="t" x="0" y="648">  3 document(s)</text>
    <text class="cyan" x="0" y="666">  [api-spec]</text>
    <text class="t" x="100" y="666">OpenAPI Specification v2</text>
  </g>
</svg>
